<svg width="13" height="13" viewBox="0 0 13 13" fill="none" xmlns="http://www.w3.org/2000/svg">
<path d="M12.0966 0.963808C12.1854 0.891004 12.2492 0.791257 12.3337 0.713867C12.2869 1.05152 12.2014 1.38229 12.1256 1.71392C11.8531 2.83005 11.5068 3.92641 11.0756 4.98522C10.697 5.91103 10.2509 6.80789 9.71275 7.64141C9.13862 8.52279 8.45573 9.33768 7.63079 9.96368C6.92598 10.504 6.11241 10.8903 5.25527 11.0572C4.90219 11.126 4.54316 11.1606 4.18413 11.1618C3.9114 11.1606 3.65112 11.0632 3.39977 10.9614C3.19929 11.4266 3.03344 11.909 2.8454 12.3805C2.73934 12.3788 2.64329 12.3229 2.54372 12.2911C2.27452 12.1845 1.99854 12.0973 1.73258 11.9818C2.06321 11.1139 2.37976 10.2388 2.76288 9.39472C3.19604 8.43852 3.7166 7.51873 4.38001 6.72104C4.96172 6.01937 5.64948 5.41631 6.41138 4.94652C7.33858 4.3724 8.36157 3.98488 9.40728 3.73924C8.92001 3.73293 8.43706 3.82408 7.95979 3.91981C6.96521 4.1302 5.99904 4.50253 5.11891 5.03853C4.38461 5.49026 3.71389 6.06208 3.15789 6.74311C2.78154 7.20028 2.45985 7.70676 2.19037 8.24161C1.99259 8.62627 1.83837 9.03328 1.68984 9.44115C1.64303 9.40532 1.60055 9.36347 1.5643 9.31618C1.24125 8.90945 0.966358 8.45257 0.800776 7.94867C0.668472 7.54223 0.625724 7.0991 0.711491 6.6769C0.863005 5.87004 1.24422 5.12423 1.74124 4.49766C2.294 3.80459 3.01396 3.26544 3.81265 2.93868C4.49689 2.65177 5.23282 2.55833 5.95332 2.4259C6.63486 2.31641 7.31532 2.19574 7.99902 2.10201C8.57802 2.01545 9.15675 1.92516 9.73223 1.81424C10.3337 1.69385 10.9368 1.55684 11.5071 1.31464C11.7149 1.22177 11.9194 1.11343 12.0966 0.963808Z" fill="white"/>
</svg>
