<svg width="166" height="149" viewBox="0 0 166 149" fill="none" xmlns="http://www.w3.org/2000/svg">
<path d="M105.548 11.7827C107.782 8.01014 109.921 4.17728 112.249 0.462402C119.563 12.737 126.658 25.1426 133.901 37.4618C144.477 55.6613 155.142 73.811 165.691 92.0263C148.575 92.1416 131.455 92.0263 114.336 92.0839C113.694 92.0525 112.999 92.2334 112.388 91.9948C111.913 91.1008 112.215 89.9814 112.084 88.9956C111.52 79.7989 108.587 70.7594 103.645 62.9836C99.2247 55.8343 93.0612 49.8255 85.9827 45.3215C83.5944 49.5843 81.0592 53.7632 78.6054 57.9893C72.0355 69.3542 65.3529 80.6535 58.7883 92.021C64.2702 92.1416 69.7599 92.0394 75.247 92.0734C86.6119 92.0734 97.9768 92.0708 109.342 92.0734C110.28 92.0866 111.25 91.9345 112.163 92.2124C112.433 93.0461 112.223 93.9374 112.197 94.7921C111.882 104.28 109.027 113.66 104.051 121.74C99.6127 129.107 93.3574 135.325 86.1164 139.942C77.2526 145.453 66.842 148.586 56.3764 148.447C44.8096 148.557 33.2691 144.779 23.8862 138.039C17.1748 133.249 11.5802 126.934 7.57429 119.732C2.93134 111.447 0.469607 101.928 0.653123 92.4248C0.493202 79.7176 5.14402 67.1101 13.182 57.3077C17.3924 52.1457 22.5597 47.778 28.2906 44.3856C34.5957 40.7703 41.5745 38.2955 48.7867 37.3438C52.5121 36.7906 56.2925 36.906 60.0441 36.9846C69.2172 37.4697 78.1676 40.516 85.988 45.2822C92.5395 34.1349 99.0307 22.9509 105.548 11.7827Z" fill="#B9B9B9"/>
</svg>
