<svg width="24" height="25" viewBox="0 0 24 25" fill="none" xmlns="http://www.w3.org/2000/svg">
<path d="M15.6802 4.46C16.1602 5.17 16.4402 6.02 16.4402 6.94C16.4302 9.34 14.5402 11.29 12.1602 11.37C12.0602 11.36 11.9402 11.36 11.8302 11.37C9.6202 11.3 7.8302 9.61 7.5902 7.45C7.3002 4.88 9.4102 2.5 11.9902 2.5" stroke="#6B6B6B" stroke-linecap="round" stroke-linejoin="round"/>
<path d="M6.9898 15.06C4.5698 16.68 4.5698 19.32 6.9898 20.93C9.7398 22.77 14.2498 22.77 16.9998 20.93C19.4198 19.31 19.4198 16.67 16.9998 15.06C14.2698 13.23 9.7598 13.23 6.9898 15.06Z" stroke="#6B6B6B" stroke-linecap="round" stroke-linejoin="round"/>
</svg>
