<svg width="25" height="25" viewBox="0 0 25 25" fill="none" xmlns="http://www.w3.org/2000/svg">
<path d="M5.33301 10.5H7.33301C9.33301 10.5 10.333 9.5 10.333 7.5V5.5C10.333 3.5 9.33301 2.5 7.33301 2.5H5.33301C3.33301 2.5 2.33301 3.5 2.33301 5.5V7.5C2.33301 9.5 3.33301 10.5 5.33301 10.5Z" stroke="#6B6B6B" stroke-miterlimit="10" stroke-linecap="round" stroke-linejoin="round"/>
<path d="M19.333 2.5H17.333C15.333 2.5 14.333 3.5 14.333 5.5V7.5C14.333 9.5 15.333 10.5 17.333 10.5H19.333C21.333 10.5 22.333 9.5 22.333 7.5V5.5" stroke="#6B6B6B" stroke-miterlimit="10" stroke-linecap="round" stroke-linejoin="round"/>
<path d="M17.333 22.5H19.333C21.333 22.5 22.333 21.5 22.333 19.5V17.5C22.333 15.5 21.333 14.5 19.333 14.5H17.333C15.333 14.5 14.333 15.5 14.333 17.5V19.5C14.333 21.5 15.333 22.5 17.333 22.5Z" stroke="#6B6B6B" stroke-miterlimit="10" stroke-linecap="round" stroke-linejoin="round"/>
<path d="M5.33301 22.5H7.33301C9.33301 22.5 10.333 21.5 10.333 19.5V17.5C10.333 15.5 9.33301 14.5 7.33301 14.5H5.33301C3.33301 14.5 2.33301 15.5 2.33301 17.5V19.5" stroke="#6B6B6B" stroke-miterlimit="10" stroke-linecap="round" stroke-linejoin="round"/>
</svg>
