<svg width="24" height="25" viewBox="0 0 24 25" fill="none" xmlns="http://www.w3.org/2000/svg">
<path d="M20.0402 7.31969L14.2802 3.28969C12.7102 2.18969 10.3002 2.24969 8.79023 3.41969L3.78023 7.32969C2.78023 8.10969 1.99023 9.70969 1.99023 10.9697V17.8697C1.99023 20.4197 4.06023 22.4997 6.61023 22.4997H17.3902C19.9402 22.4997 22.0102 20.4297 22.0102 17.8797V11.0997C22.0102 9.74969 21.1402 8.08969 20.0402 7.31969Z" fill="#80AD01"/>
<path d="M12 19.25C11.59 19.25 11.25 18.91 11.25 18.5V15.5C11.25 15.09 11.59 14.75 12 14.75C12.41 14.75 12.75 15.09 12.75 15.5V18.5C12.75 18.91 12.41 19.25 12 19.25Z" fill="#CCE094"/>
</svg>
