<svg width="25" height="25" viewBox="0 0 25 25" fill="none" xmlns="http://www.w3.org/2000/svg">
<path d="M19.9173 14.4699C20.0573 16.0999 18.7673 17.4999 17.1273 17.4999H6.47732C5.03732 17.4999 3.77732 16.3199 3.66732 14.8899L3.12733 7.38989C3.00733 5.72989 4.26733 4.37988 5.93733 4.37988H18.8473" stroke="#6B6B6B" stroke-miterlimit="10" stroke-linecap="round" stroke-linejoin="round"/>
<path d="M22.667 2.5H20.927C19.847 2.5 18.997 3.43 19.087 4.5L19.587 10.55" stroke="#6B6B6B" stroke-miterlimit="10" stroke-linecap="round" stroke-linejoin="round"/>
<path d="M8.41699 22.5C7.72664 22.5 7.16699 21.9404 7.16699 21.25C7.16699 20.5596 7.72664 20 8.41699 20C9.10735 20 9.66699 20.5596 9.66699 21.25C9.66699 21.9404 9.10735 22.5 8.41699 22.5Z" stroke="#6B6B6B" stroke-miterlimit="10" stroke-linecap="round" stroke-linejoin="round"/>
<path d="M16.417 22.5C15.7266 22.5 15.167 21.9404 15.167 21.25C15.167 20.5596 15.7266 20 16.417 20C17.1073 20 17.667 20.5596 17.667 21.25C17.667 21.9404 17.1073 22.5 16.417 22.5Z" stroke="#6B6B6B" stroke-miterlimit="10" stroke-linecap="round" stroke-linejoin="round"/>
<path d="M15.667 8.5H3.66699" stroke="#6B6B6B" stroke-miterlimit="10" stroke-linecap="round" stroke-linejoin="round"/>
</svg>
